<svg xmlns="http://www.w3.org/2000/svg" xmlns:xlink="http://www.w3.org/1999/xlink" viewBox="0 0 544.67 471.7"><defs><linearGradient id="linear-gradient" y1="235.85" x2="538.74" y2="235.85" gradientUnits="userSpaceOnUse"><stop offset="0" stop-color="#f1f2f2"/><stop offset="0.51" stop-color="#e3e4e5"/><stop offset="1" stop-color="#d1d3d4"/></linearGradient><linearGradient id="linear-gradient-2" x1="35.32" y1="246.04" x2="505.22" y2="246.04" gradientUnits="userSpaceOnUse"><stop offset="0" stop-color="#f1f2f2"/><stop offset="0.68" stop-color="#e3e4e4"/><stop offset="1" stop-color="#dadbdc"/></linearGradient><linearGradient id="linear-gradient-3" x1="70.64" y1="256.24" x2="471.4" y2="256.24" gradientUnits="userSpaceOnUse"><stop offset="0" stop-color="#f1f2f2"/><stop offset="0.96" stop-color="#e3e4e5"/><stop offset="1" stop-color="#e2e3e4"/></linearGradient><linearGradient id="linear-gradient-4" x1="105.95" y1="266.43" x2="437.27" y2="266.43" gradientUnits="userSpaceOnUse"><stop offset="0" stop-color="#f1f2f2"/><stop offset="1" stop-color="#ebebec"/></linearGradient><linearGradient id="linear-gradient-5" x1="141.27" y1="276.63" x2="402.83" y2="276.63" gradientUnits="userSpaceOnUse"><stop offset="0" stop-color="#f1f2f2"/><stop offset="1" stop-color="#f3f4f4"/></linearGradient><linearGradient id="linear-gradient-6" x1="176.59" y1="286.83" x2="368.08" y2="286.83" gradientUnits="userSpaceOnUse"><stop offset="0" stop-color="#f1f2f2"/><stop offset="1" stop-color="#fff"/></linearGradient><linearGradient id="linear-gradient-7" x1="138.29" y1="309.36" x2="406.38" y2="309.36" gradientUnits="userSpaceOnUse"><stop offset="0" stop-color="#00aeef"/><stop offset="1" stop-color="#f15a29"/></linearGradient><linearGradient id="linear-gradient-8" x1="161.68" y1="309.7" x2="383.71" y2="309.7" gradientUnits="userSpaceOnUse"><stop offset="0" stop-color="#00b9f2"/><stop offset="1" stop-color="#f47c4b"/></linearGradient><linearGradient id="linear-gradient-9" x1="185.06" y1="310.05" x2="361.04" y2="310.05" gradientUnits="userSpaceOnUse"><stop offset="0" stop-color="#44c8f5"/><stop offset="1" stop-color="#f79a70"/></linearGradient><linearGradient id="linear-gradient-10" x1="208.45" y1="310.4" x2="338.38" y2="310.4" gradientUnits="userSpaceOnUse"><stop offset="0" stop-color="#8ed8f8"/><stop offset="1" stop-color="#fbb998"/></linearGradient><linearGradient id="linear-gradient-11" x1="231.83" y1="310.74" x2="315.71" y2="310.74" gradientUnits="userSpaceOnUse"><stop offset="0" stop-color="#c7eafb"/><stop offset="1" stop-color="#fddac6"/></linearGradient></defs><title>conscious_observer_icon</title><g id="Layer_2" data-name="Layer 2"><g id="Layer_1-2" data-name="Layer 1"><polygon points="272.33 0 0 471.7 544.67 471.7 272.33 0" fill="url(#linear-gradient)"/><polygon points="272.33 40.78 35.32 451.31 509.35 451.31 272.33 40.78" fill="url(#linear-gradient-2)"/><polygon points="272.33 81.56 70.64 430.92 474.03 430.92 272.33 81.56" fill="url(#linear-gradient-3)"/><polygon points="272.33 122.34 105.95 410.52 438.71 410.52 272.33 122.34" fill="url(#linear-gradient-4)"/><polygon points="272.33 163.13 141.27 390.13 403.4 390.13 272.33 163.13" fill="url(#linear-gradient-5)"/><polygon points="272.33 203.91 176.59 369.74 368.08 369.74 272.33 203.91" fill="url(#linear-gradient-6)"/><ellipse cx="272.33" cy="309.36" rx="134.04" ry="58.62" fill="url(#linear-gradient-7)"/><path d="M273.53,259c14.8,0,30.67,2.24,43.49,4.61,15.45,2.86,30.13,8.94,40.88,14.44,16,8.19,25.81,20.84,25.81,32.47S373.1,334.6,357.06,342.8a159.75,159.75,0,0,1-41.47,13.81,253.06,253.06,0,0,1-43.74,3.77c-14.79,0-30.66-2.23-43.48-4.6-15.45-2.86-30.13-8.94-40.88-14.44-16-8.2-25.81-20.84-25.81-32.48s10.61-24.05,26.64-32.25a160.2,160.2,0,0,1,41.48-13.82A254,254,0,0,1,273.53,259Z" fill="url(#linear-gradient-8)"/><path d="M274.73,267.31c11.1,0,25.22,2.84,34.84,4.61,11.59,2.15,23.95,8.83,32,12.95C353.61,291,361,303,361,311.73S351.93,332,339.9,338.14c-8.06,4.12-21.64,9.57-33.22,11.71a220.82,220.82,0,0,1-35.31,2.94c-11.09,0-25.22-2.84-34.83-4.61-11.59-2.15-23.95-8.83-32-12.95-12-6.14-19.47-18.14-19.47-26.86S194.18,288.1,206.2,282c8.06-4.12,21.64-9.57,33.23-11.71A220.69,220.69,0,0,1,274.73,267.31Z" fill="url(#linear-gradient-9)"/><path d="M275.93,275.6c7.4,0,19.78,3.44,26.19,4.62,7.73,1.43,17.76,8.7,23.14,11.45,8,4.1,13.12,15.43,13.12,21.25s-7.63,16.47-15.64,20.57c-5.37,2.75-17.25,8.17-25,9.6-6.41,1.19-19.48,2.1-26.88,2.1s-19.78-3.43-26.19-4.62c-7.72-1.42-17.76-8.7-23.13-11.45-8-4.09-13.12-15.43-13.12-21.25s7.62-16.47,15.64-20.57c5.37-2.74,17.24-8.17,25-9.6C255.47,276.51,268.53,275.6,275.93,275.6Z" fill="url(#linear-gradient-10)"/><path d="M277.13,283.89c3.7,0,14.34,4,17.55,4.62,3.86.72,11.57,8.59,14.26,10,4,2,6.77,12.73,6.77,15.63s-6.13,12.69-10.14,14.74c-2.68,1.37-12.85,6.78-16.71,7.49a183.27,183.27,0,0,1-18.45,1.27c-3.7,0-14.34-4-17.54-4.63-3.87-.71-11.57-8.58-14.26-10-4-2-6.78-12.72-6.78-15.63S238,294.7,242,292.65c2.69-1.38,12.85-6.78,16.72-7.5A182.92,182.92,0,0,1,277.13,283.89Z" fill="url(#linear-gradient-11)"/><polygon points="293.05 315.29 288.41 324.19 279.95 329.57 269.93 330 261.03 325.37 255.65 316.91 255.22 306.88 259.85 297.99 268.31 292.61 278.33 292.17 287.23 296.81 292.61 305.27 293.05 315.29" fill="#fff"/><ellipse cx="272.33" cy="309.36" rx="115.37" ry="42.93" fill="#fff"/><ellipse cx="272.52" cy="309.36" rx="100.11" ry="39.75" fill="#d7dfe6" opacity="0.99"/><ellipse cx="272.7" cy="309.36" rx="84.86" ry="36.56" fill="#b5c6d4" opacity="0.99"/><ellipse cx="272.88" cy="309.36" rx="69.6" ry="33.38" fill="#96b0c4" opacity="0.98"/><ellipse cx="273.07" cy="309.36" rx="54.35" ry="30.2" fill="#779db5" opacity="0.97"/><ellipse cx="273.25" cy="309.36" rx="39.09" ry="27.02" fill="#588ca7" opacity="0.97"/></g></g></svg>