<?xml version="1.0" encoding="utf-8"?>
<!-- Generator: Adobe Illustrator 23.0.2, SVG Export Plug-In . SVG Version: 6.00 Build 0)  -->
<svg version="1.1" id="Layer_2" xmlns="http://www.w3.org/2000/svg" xmlns:xlink="http://www.w3.org/1999/xlink" x="0px" y="0px"
	 viewBox="0 0 131.8 131.8" style="enable-background:new 0 0 131.8 131.8;" xml:space="preserve">
<style type="text/css">
	.st0{fill:#CFD8DC;}
	.st1{opacity:0.2;}
	.st2{fill:#40C4FF;fill-opacity:0;}
	.st3{opacity:2.000000e-02;fill:#3FC1FB;enable-background:new    ;}
	.st4{opacity:4.000000e-02;fill:#3FBEF7;enable-background:new    ;}
	.st5{opacity:6.000000e-02;fill:#3EBBF3;enable-background:new    ;}
	.st6{opacity:8.000000e-02;fill:#3EB9EF;enable-background:new    ;}
	.st7{opacity:0.1;fill:#3DB6EB;enable-background:new    ;}
	.st8{opacity:0.12;fill:#3DB3E8;enable-background:new    ;}
	.st9{opacity:0.14;fill:#3CB0E4;enable-background:new    ;}
	.st10{opacity:0.16;fill:#3CADE0;enable-background:new    ;}
	.st11{opacity:0.18;fill:#3BAADC;enable-background:new    ;}
	.st12{opacity:0.2;fill:#3BA7D8;enable-background:new    ;}
	.st13{opacity:0.22;fill:#3AA5D4;enable-background:new    ;}
	.st14{opacity:0.23;fill:#3AA2D0;enable-background:new    ;}
	.st15{opacity:0.25;fill:#399FCC;enable-background:new    ;}
	.st16{opacity:0.28;fill:#399CC8;enable-background:new    ;}
	.st17{opacity:0.29;fill:#3899C4;enable-background:new    ;}
	.st18{opacity:0.31;fill:#3896C1;enable-background:new    ;}
	.st19{opacity:0.33;fill:#3793BD;enable-background:new    ;}
	.st20{opacity:0.35;fill:#3790B9;enable-background:new    ;}
	.st21{opacity:0.37;fill:#368EB5;enable-background:new    ;}
	.st22{opacity:0.39;fill:#368BB1;enable-background:new    ;}
	.st23{opacity:0.41;fill:#3588AD;enable-background:new    ;}
	.st24{opacity:0.43;fill:#3585A9;enable-background:new    ;}
	.st25{opacity:0.45;fill:#3482A5;enable-background:new    ;}
	.st26{opacity:0.47;fill:#347FA1;enable-background:new    ;}
	.st27{opacity:0.49;fill:#337C9D;enable-background:new    ;}
	.st28{opacity:0.51;fill:#337A9A;enable-background:new    ;}
	.st29{opacity:0.53;fill:#327796;enable-background:new    ;}
	.st30{opacity:0.55;fill:#327492;enable-background:new    ;}
	.st31{opacity:0.57;fill:#31718E;enable-background:new    ;}
	.st32{opacity:0.59;fill:#316E8A;enable-background:new    ;}
	.st33{opacity:0.61;fill:#306B86;enable-background:new    ;}
	.st34{opacity:0.63;fill:#306882;enable-background:new    ;}
	.st35{opacity:0.65;fill:#2F667E;enable-background:new    ;}
	.st36{opacity:0.67;fill:#2F637A;enable-background:new    ;}
	.st37{opacity:0.69;fill:#2E6076;enable-background:new    ;}
	.st38{opacity:0.71;fill:#2E5D73;enable-background:new    ;}
	.st39{opacity:0.73;fill:#2D5A6F;enable-background:new    ;}
	.st40{opacity:0.75;fill:#2D576B;enable-background:new    ;}
	.st41{opacity:0.76;fill:#2C5467;enable-background:new    ;}
	.st42{opacity:0.78;fill:#2C5163;enable-background:new    ;}
	.st43{opacity:0.8;fill:#2B4F5F;enable-background:new    ;}
	.st44{opacity:0.82;fill:#2B4C5B;enable-background:new    ;}
	.st45{opacity:0.84;fill:#2A4957;enable-background:new    ;}
	.st46{opacity:0.86;fill:#2A4653;enable-background:new    ;}
	.st47{opacity:0.88;fill:#29434F;enable-background:new    ;}
	.st48{opacity:0.9;fill:#29404C;enable-background:new    ;}
	.st49{opacity:0.92;fill:#283D48;enable-background:new    ;}
	.st50{opacity:0.94;fill:#283B44;enable-background:new    ;}
	.st51{opacity:0.96;fill:#273840;enable-background:new    ;}
	.st52{opacity:0.98;fill:#27353C;enable-background:new    ;}
	.st53{fill:#263238;}
	.st54{fill:#FFB74D;}
	.st55{fill:#FFA726;}
	.st56{fill:#37474F;}
	.st57{fill:#ECEFF1;}
</style>
<g>
	<circle class="st0" cx="65.5" cy="68.3" r="63"/>
	<g id="Group_2" class="st1">
		<path id="Path_198" class="st2" d="M87,82.5v0.8c-0.7,34.1-62.6,34.1-63.2,0v-0.8c0-15.8,14.1-26.8,27-33.9h-2.9
			c-1.4,0-2.6-1.2-2.6-2.6c0-1.4,1.2-2.6,2.6-2.6h5c-5.2-2.4-9.8-5.9-13.5-10.2h32.1c-3.8,4.3-8.4,7.7-13.5,10.2h5
			c1.4,0,2.6,1.2,2.6,2.6c0,1.4-1.2,2.6-2.6,2.6h-2.9C72.9,55.6,87,66.7,87,82.5z"/>
		<path id="Path_199" class="st3" d="M87.1,82.4v0.8c-0.6,34.1-62.5,34.1-63.2,0v-0.8c0-15.8,14.1-26.9,27-33.9H48
			c-1.4-0.1-2.5-1.4-2.4-2.8c0.1-1.2,1.1-2.2,2.3-2.4H53c-5.2-2.4-9.7-5.9-13.5-10.2h32.1c-3.8,4.3-8.3,7.8-13.5,10.2h5
			c1.4,0,2.6,1.2,2.6,2.6c0,1.4-1.2,2.6-2.6,2.6h-2.9C73.1,55.5,87.1,66.6,87.1,82.4z"/>
		<path id="Path_200" class="st4" d="M87.3,82.3v0.8c-0.7,34.1-62.5,34.1-63.2,0v-0.8c0-15.8,14.1-26.9,27-33.9h-3
			c-1.4-0.1-2.5-1.3-2.5-2.8c0.1-1.3,1.1-2.4,2.5-2.5h5C48,40.7,43.5,37.2,39.7,33h32.1c-3.8,4.3-8.4,7.7-13.5,10.2h5
			c1.4-0.1,2.7,1,2.8,2.4c0.1,1.4-1,2.7-2.4,2.8c-0.1,0-0.2,0-0.3,0h-3C73.3,55.4,87.3,66.5,87.3,82.3z"/>
		<path id="Path_201" class="st5" d="M87.5,82.2V83c-0.7,34.1-62.5,34.1-63.2,0v-0.8c0-15.8,14.1-26.9,27-33.9h-2.9
			c-1.4-0.1-2.5-1.3-2.5-2.8c0.1-1.3,1.1-2.4,2.5-2.5h5c-5.2-2.4-9.7-5.9-13.5-10.2H72c-3.8,4.3-8.3,7.7-13.5,10.2h5
			c1.4-0.1,2.7,0.9,2.9,2.3c0.1,1.4-0.9,2.7-2.3,2.9c-0.1,0-0.3,0-0.5,0h-3.1C73.5,55.3,87.5,66.4,87.5,82.2z"/>
		<path id="Path_202" class="st6" d="M87.7,82.1v0.8C87,117,25.2,117,24.6,82.9v-0.8c0-15.8,14.1-26.9,27-33.9h-2.9
			c-1.4-0.1-2.5-1.3-2.5-2.8c0.1-1.3,1.1-2.4,2.5-2.5h5c-5.2-2.4-9.8-5.9-13.5-10.2h32.1C68.5,37,63.9,40.5,58.7,43h5
			c1.4,0,2.6,1.1,2.7,2.6c0,1.4-1.1,2.6-2.6,2.7l0,0h-3C73.7,55.2,87.7,66.3,87.7,82.1z"/>
		<path id="Path_203" class="st7" d="M87.9,82v0.8c-0.7,34.1-62.4,34.1-63.1,0V82c0-15.8,14.1-26.9,27-33.9h-2.9
			c-1.4,0.1-2.7-1-2.8-2.4s1-2.7,2.4-2.8c0.1,0,0.2,0,0.3,0h5.1c-5.1-2.4-9.7-5.9-13.5-10.2h32.1c-3.8,4.3-8.4,7.7-13.5,10.2h5
			c1.4,0,2.6,1.1,2.7,2.6s-1.1,2.6-2.6,2.7l0,0h-3C73.9,55.1,87.9,66.2,87.9,82z"/>
		<path id="Path_204" class="st8" d="M88.1,81.9v0.8c-0.7,34.1-62.4,34.1-63.1,0v-0.8C25,66.1,39,55,52,48h-2.9
			c-1.4,0-2.6-1.2-2.6-2.6c0-1.4,1.2-2.6,2.6-2.6h5c-5.2-2.4-9.8-5.9-13.5-10.2h32.1c-3.8,4.3-8.4,7.7-13.5,10.2h5
			c1.4,0,2.6,1.1,2.7,2.6c0,1.4-1.1,2.6-2.6,2.7h-3C74.1,55,88.1,66.1,88.1,81.9z"/>
		<path id="Path_205" class="st9" d="M88.2,81.8v0.8c-0.7,34.1-62.4,34.1-63,0v-0.8c0-15.8,14.1-26.9,27-33.9h-3
			c-1.4-0.1-2.5-1.3-2.5-2.8c0.1-1.3,1.1-2.4,2.5-2.5h5c-5.1-2.4-9.7-5.9-13.5-10.2h32.1c-3.8,4.3-8.4,7.7-13.5,10.2h5
			c1.4-0.1,2.7,1,2.8,2.4c0.1,1.4-1,2.7-2.4,2.8c-0.1,0-0.2,0-0.3,0h-3C74.3,54.9,88.2,66,88.2,81.8z"/>
		<path id="Path_206" class="st10" d="M88.4,81.7v0.8c-0.7,34.1-62.4,34.1-63,0v-0.8c0-15.8,14.1-26.9,27-33.9h-2.9
			c-1.4,0.1-2.7-0.9-2.8-2.4c-0.1-1.4,0.9-2.7,2.4-2.8c0.1,0,0.2,0,0.3,0h5.2c-5.2-2.4-9.8-5.9-13.5-10.2H73
			c-3.8,4.3-8.4,7.7-13.5,10.2h5c1.4,0,2.6,1.2,2.6,2.7c0,1.3-1.1,2.5-2.4,2.6h-3.1C74.5,54.8,88.4,65.9,88.4,81.7z"/>
		<path id="Path_207" class="st11" d="M88.6,81.6v0.8c-0.7,34.1-62.3,34.1-63,0v-0.8c0-15.8,14.1-26.9,27-33.9h-3
			c-1.4-0.1-2.5-1.3-2.5-2.8c0.1-1.3,1.1-2.4,2.5-2.5h5c-5.1-2.4-9.7-5.9-13.4-10.2h32.1c-3.8,4.3-8.4,7.7-13.5,10.2h5
			c1.4,0.1,2.5,1.3,2.5,2.8c-0.1,1.3-1.1,2.4-2.5,2.5h-3C74.8,54.7,88.6,65.8,88.6,81.6z"/>
		<path id="Path_208" class="st12" d="M88.8,81.5v0.8c-0.7,34.1-62.3,34.1-63,0v-0.8c0-15.8,14.1-26.9,27-33.9h-2.9
			c-1.4,0.1-2.7-1-2.8-2.4s1-2.7,2.4-2.8c0.1,0,0.2,0,0.3,0h5.1c-5.1-2.4-9.7-5.9-13.5-10.2h32.1c-3.8,4.3-8.4,7.7-13.5,10.2h5
			c1.4,0.1,2.5,1.3,2.5,2.8c-0.1,1.3-1.1,2.4-2.5,2.5h-3C75,54.6,88.8,65.7,88.8,81.5z"/>
		<path id="Path_209" class="st13" d="M89,81.4v0.8c-0.7,34.1-62.3,34.1-62.9,0v-0.8c0-15.8,14.1-26.9,27-33.9h-3
			c-1.4,0-2.6-1.2-2.6-2.6c0-1.4,1.2-2.6,2.6-2.6h5c-5.1-2.4-9.7-5.9-13.5-10.2h32.2c-3.8,4.3-8.4,7.7-13.5,10.2h5
			c1.4,0,2.6,1.2,2.6,2.6c0,1.4-1.2,2.6-2.6,2.6h-3C75.2,54.5,89,65.6,89,81.4z"/>
		<path id="Path_210" class="st14" d="M89.1,81.3v0.8c-0.7,34.1-62.3,34.1-62.9,0v-0.8c0-15.8,14.1-26.9,27-33.9h-2.9
			c-1.4,0.1-2.7-0.9-2.8-2.4c-0.1-1.4,0.9-2.7,2.4-2.8c0.1,0,0.2,0,0.3,0h5.2c-5.1-2.4-9.7-5.9-13.5-10.2h32.1
			c-3.8,4.3-8.4,7.7-13.5,10.2h5c1.4,0,2.7,1.1,2.7,2.5c0,1.4-1.1,2.7-2.5,2.7c-0.1,0-0.1,0-0.2,0h-2.9
			C75.4,54.4,89.1,65.5,89.1,81.3z"/>
		<path id="Path_211" class="st15" d="M89.3,81.2V82c-0.7,34.1-62.2,34.1-62.9,0v-0.8c0-15.8,14.1-26.9,27-33.9h-2.9
			c-1.4-0.1-2.6-1.3-2.5-2.7c0.1-1.3,1.1-2.4,2.4-2.5h5.1c-5.1-2.4-9.7-5.9-13.5-10.2h32.1c-3.8,4.3-8.4,7.7-13.5,10.2h5
			c1.4,0,2.6,1.2,2.6,2.6c0,1.4-1.2,2.6-2.6,2.6h-2.9C75.6,54.3,89.3,65.4,89.3,81.2z"/>
		<path id="Path_212" class="st16" d="M89.5,81.1v0.8c-0.7,34.1-62.2,34.1-62.9,0v-0.8c0-15.8,14.1-26.9,27-33.9h-2.9
			c-1.4-0.1-2.5-1.3-2.5-2.8c0.1-1.3,1.1-2.4,2.5-2.5h5c-5.1-2.4-9.7-5.9-13.5-10.2h32.1c-3.8,4.3-8.4,7.7-13.5,10.2h5
			c1.4-0.1,2.7,1,2.8,2.4c0.1,1.4-1,2.7-2.4,2.8c-0.1,0-0.2,0-0.3,0h-3C75.8,54.3,89.5,65.3,89.5,81.1z"/>
		<path id="Path_213" class="st17" d="M89.7,81v0.8c-0.7,34.1-62.2,34.1-62.8,0V81c0-15.8,14.1-26.9,27-33.9h-3
			c-1.4,0.1-2.7-1-2.8-2.4s1-2.7,2.4-2.8c0.1,0,0.2,0,0.3,0h5.1c-5.1-2.4-9.7-5.9-13.5-10.2h32.2C70.7,36,66.1,39.4,61,41.9h5
			c1.4,0.1,2.5,1.3,2.5,2.8C68.4,46,67.3,47,66,47.1h-3C76,54.1,89.7,65.2,89.7,81z"/>
		<path id="Path_214" class="st18" d="M89.9,80.9v0.8c-0.7,34.1-62.2,34.1-62.8,0v-0.8C27,65.1,41.1,54,54,47h-3
			c-1.4,0-2.6-1.2-2.6-2.6c0-1.4,1.2-2.6,2.6-2.6h5c-5.1-2.4-9.7-5.9-13.4-10.2h32.1c-3.8,4.3-8.4,7.7-13.5,10.2h5
			c1.4,0,2.6,1.2,2.6,2.6c0,1.4-1.2,2.6-2.6,2.6h-2.9C76.2,54,89.9,65.1,89.9,80.9z"/>
		<path id="Path_215" class="st19" d="M90,80.8v0.8c-0.7,34.1-62.1,34.1-62.8,0v-0.8c0-15.8,14.1-26.9,27-33.9h-2.9
			c-1.4,0-2.6-1.2-2.6-2.6c0-1.4,1.2-2.6,2.6-2.6h5c-5.2-2.4-9.8-5.9-13.5-10.2h32.1c-3.8,4.3-8.4,7.7-13.5,10.2h5
			c1.4,0.1,2.5,1.3,2.5,2.8c-0.1,1.3-1.1,2.4-2.5,2.5h-3C76.4,53.9,90,65,90,80.8z"/>
		<path id="Path_216" class="st20" d="M90.2,80.7v0.8c-0.7,34.1-62.1,34.1-62.8,0v-0.8c0-15.8,14.1-26.9,27-33.9h-2.9
			c-1.4-0.1-2.5-1.3-2.5-2.8c0.1-1.3,1.1-2.4,2.5-2.5h5c-5.1-2.4-9.7-5.9-13.5-10.2h32.1c-3.8,4.3-8.4,7.7-13.5,10.2h5
			c1.4,0.1,2.5,1.3,2.5,2.8c-0.1,1.3-1.1,2.4-2.5,2.5h-3C76.6,53.8,90.2,64.9,90.2,80.7z"/>
		<path id="Path_217" class="st21" d="M90.4,80.6v0.8c-0.7,34.1-62.1,34.1-62.7,0v-0.8c0-15.8,14.1-26.9,27-33.9h-2.9
			c-1.4-0.1-2.5-1.3-2.5-2.8c0.1-1.3,1.1-2.4,2.5-2.5h5C51.6,39,47,35.6,43.2,31.3h32.1C71.6,35.6,67,39,61.8,41.5h5
			c1.4,0.1,2.5,1.3,2.5,2.8c-0.1,1.3-1.1,2.4-2.5,2.5h-3C76.8,53.7,90.4,64.8,90.4,80.6z"/>
		<path id="Path_218" class="st22" d="M90.6,80.5v0.8c-0.7,34.1-62,34.1-62.7,0v-0.8c0-15.8,14.1-26.9,27-33.9h-2.9
			c-1.4-0.1-2.5-1.3-2.5-2.8c0.1-1.3,1.1-2.4,2.5-2.5h5c-5.1-2.4-9.7-5.9-13.5-10.2h32.1c-3.8,4.3-8.3,7.7-13.5,10.2h5
			c1.4,0,2.6,1.2,2.6,2.6c0,1.4-1.2,2.6-2.6,2.6h-2.9C77,53.6,90.6,64.7,90.6,80.5z"/>
		<path id="Path_219" class="st23" d="M90.8,80.4v0.9c-0.7,34.1-62,34.1-62.7,0v-0.8c0-15.8,14.1-26.9,27-33.9h-2.9
			c-1.4,0-2.6-1.2-2.6-2.6c0-1.4,1.2-2.6,2.6-2.6h5c-5.1-2.4-9.7-5.9-13.5-10.2h32.1c-3.8,4.3-8.4,7.7-13.5,10.1h5
			c1.4,0,2.6,1.1,2.7,2.6s-1.1,2.6-2.6,2.7h-3C77.2,53.5,90.8,64.6,90.8,80.4z"/>
		<path id="Path_220" class="st24" d="M90.9,80.3v0.8c-0.7,34.1-62,34.1-62.7,0v-0.8c0-15.8,14.1-26.9,27-33.9h-2.9
			c-1.4,0-2.6-1.1-2.7-2.6c0-1.4,1.1-2.6,2.6-2.7h5.1c-5.1-2.4-9.7-5.9-13.5-10.2h32.1c-3.8,4.3-8.4,7.7-13.5,10.2h5
			c1.4,0,2.6,1.2,2.6,2.6c0,1.4-1.2,2.6-2.6,2.6h-2.9C77.4,53.4,90.9,64.5,90.9,80.3z"/>
		<path id="Path_221" class="st25" d="M91.1,80.2V81c-0.7,34.1-62,34.1-62.6,0v-0.8c0-15.8,14-26.9,27-33.9h-2.9
			c-1.4-0.1-2.5-1.3-2.5-2.8c0.1-1.3,1.1-2.4,2.5-2.5h5c-5.1-2.4-9.7-5.9-13.5-10.2h32.1c-3.8,4.3-8.4,7.7-13.5,10.2h5
			c1.4,0.1,2.5,1.3,2.5,2.8c-0.1,1.3-1.1,2.4-2.5,2.5h-2.9C77.6,53.3,91.1,64.4,91.1,80.2z"/>
		<path id="Path_222" class="st26" d="M91.3,80.1v0.8c-0.7,34.1-62,34.1-62.6,0v-0.8c0-15.8,14.1-26.9,27-33.9h-3
			c-1.4-0.1-2.6-1.3-2.5-2.7c0.1-1.3,1.1-2.4,2.4-2.5h5.1c-5.1-2.4-9.7-5.9-13.5-10.2h32.2C72.6,35.1,68,38.6,62.8,41h5
			c1.4,0.1,2.5,1.3,2.5,2.8c-0.1,1.3-1.1,2.4-2.5,2.5h-2.9C77.8,53.3,91.3,64.3,91.3,80.1z"/>
		<path id="Path_223" class="st27" d="M91.5,80v0.8c-0.7,34.1-61.9,34.1-62.6,0V80c0-15.8,14.1-26.9,27-33.9h-3
			c-1.4,0.1-2.7-1-2.8-2.4s1-2.7,2.4-2.8c0.1,0,0.2,0,0.3,0h5.1c-5.1-2.5-9.7-5.9-13.4-10.2h32C72.8,35,68.2,38.5,63,40.9h5
			c1.4-0.1,2.7,1,2.8,2.4c0.1,1.4-1,2.7-2.4,2.8c-0.1,0-0.2,0-0.3,0h-3C78.1,53.1,91.5,64.3,91.5,80z"/>
		<path id="Path_224" class="st28" d="M91.7,79.9v0.8c-0.7,34.1-61.9,34.1-62.6,0v-0.8c0-15.8,14.1-26.9,27-33.9h-2.9
			c-1.4,0.1-2.7-1-2.8-2.4s1-2.7,2.4-2.8c0.1,0,0.2,0,0.3,0h5.1c-5.1-2.4-9.7-5.9-13.5-10.2h32.1c-3.8,4.3-8.4,7.7-13.5,10.2h5
			c1.4,0.1,2.6,1.3,2.5,2.7c-0.1,1.3-1.1,2.4-2.4,2.5h-3C78.3,53,91.7,64.1,91.7,79.9z"/>
		<path id="Path_225" class="st29" d="M91.8,79.8v0.8c-0.7,34.1-61.9,34.1-62.5,0v-0.8c0-15.8,14.1-26.9,27-33.9h-2.9
			c-1.4,0-2.6-1.1-2.7-2.6c0-1.4,1.1-2.6,2.6-2.7h5.1c-5.1-2.4-9.7-5.9-13.5-10.2H77c-3.7,4.3-8.3,7.7-13.5,10.2h5
			c1.4,0,2.6,1.1,2.7,2.6s-1.1,2.6-2.6,2.7l0,0h-3.1C78.5,53,91.8,64,91.8,79.8z"/>
		<path id="Path_226" class="st30" d="M92,79.7v0.8c-0.7,34.1-61.8,34.1-62.5,0v-0.8c0-15.8,14.1-26.9,27-33.9h-2.9
			c-1.4,0-2.6-1.2-2.6-2.6c0-1.4,1.2-2.6,2.6-2.6h5c-5.1-2.4-9.7-5.9-13.5-10.2h32.1c-3.8,4.3-8.4,7.7-13.5,10.2h5
			c1.4,0,2.6,1.2,2.6,2.6c0,1.4-1.2,2.6-2.6,2.6h-3C78.7,52.9,92,63.9,92,79.7z"/>
		<path id="Path_227" class="st31" d="M92.2,79.6v0.8c-0.7,34.1-61.8,34.1-62.5,0v-0.8c0-15.8,14.1-26.9,27-33.9h-2.9
			c-1.4-0.1-2.5-1.3-2.5-2.8c0.1-1.3,1.1-2.4,2.5-2.5h5c-5.1-2.4-9.7-5.9-13.5-10.2h32.1c-3.8,4.3-8.4,7.7-13.5,10.2h5
			c1.4,0.1,2.5,1.3,2.5,2.8c-0.1,1.3-1.1,2.4-2.5,2.5h-2.9C78.9,52.8,92.2,63.8,92.2,79.6z"/>
		<path id="Path_228" class="st32" d="M92.4,79.5v0.8c-0.7,34.1-61.8,34.1-62.5,0v-0.8c0-15.8,14.1-26.9,27-33.9H54
			c-1.4-0.1-2.5-1.3-2.5-2.8c0.1-1.3,1.1-2.4,2.5-2.5h5c-5.1-2.4-9.7-5.9-13.5-10.1h32.1c-3.8,4.3-8.4,7.7-13.5,10.2h5
			c1.4,0.1,2.5,1.3,2.5,2.8c-0.1,1.3-1.1,2.4-2.5,2.5h-2.9C79.1,52.7,92.4,63.7,92.4,79.5z"/>
		<path id="Path_229" class="st33" d="M92.6,79.4v0.9c-0.7,34.1-61.8,34.1-62.4,0v-0.8c0-15.8,14.1-26.9,27-33.9h-2.9
			c-1.4-0.1-2.6-1.3-2.5-2.7c0.1-1.3,1.1-2.4,2.4-2.5h5.1c-5.1-2.4-9.7-5.9-13.5-10.2h32.1c-3.8,4.3-8.3,7.7-13.5,10.1h5
			c1.4,0.1,2.5,1.3,2.5,2.8c-0.1,1.3-1.1,2.4-2.5,2.5h-3C79.3,52.5,92.6,63.6,92.6,79.4z"/>
		<path id="Path_230" class="st34" d="M92.8,79.3v0.8c-0.7,34.1-61.7,34.1-62.4,0v-0.8c0-15.8,14.1-26.9,27-33.9h-3
			c-1.4,0.1-2.7-1-2.8-2.4s1-2.7,2.4-2.8c0.1,0,0.2,0,0.3,0h5.2c-5.1-2.4-9.7-5.9-13.5-10.2H78c-3.8,4.3-8.3,7.7-13.5,10.2h5
			c1.4,0.1,2.6,1.3,2.5,2.7c-0.1,1.3-1.1,2.4-2.4,2.5h-3.1C79.5,52.5,92.8,63.5,92.8,79.3z"/>
		<path id="Path_231" class="st35" d="M92.9,79.3v0.8c-0.7,34.1-61.7,34.1-62.4,0v-0.8c0-15.8,14.1-26.9,27-33.9h-2.9
			c-1.4,0-2.6-1.2-2.6-2.6c0-1.4,1.2-2.6,2.6-2.6h5c-5.1-2.4-9.7-5.9-13.5-10.2h32.1c-3.8,4.3-8.4,7.7-13.5,10.2h5
			c1.4,0,2.6,1.2,2.6,2.6c0,1.4-1.2,2.6-2.6,2.6h-2.9C79.7,52.4,92.9,63.4,92.9,79.3z"/>
		<path id="Path_232" class="st36" d="M93.1,79.1v0.8c-0.7,34.1-61.7,34.1-62.3,0v-0.8c0-15.8,14.1-26.9,27-33.9h-3
			c-1.4-0.1-2.5-1.3-2.5-2.8c0.1-1.3,1.1-2.4,2.5-2.5h5c-5.1-2.4-9.7-5.9-13.5-10.2h32.2c-3.8,4.3-8.4,7.7-13.5,10.2h5
			c1.4,0.1,2.5,1.3,2.5,2.8c-0.1,1.3-1.1,2.4-2.5,2.5H67C79.9,52.3,93.1,63.3,93.1,79.1z"/>
		<path id="Path_233" class="st37" d="M93.3,79v0.8C92.6,114,31.6,114,31,79.8V79C31,63.3,45,52.2,58,45.1H55
			c-1.4-0.1-2.5-1.3-2.5-2.8c0.1-1.3,1.1-2.4,2.5-2.5h5c-5.2-2.4-9.8-5.9-13.5-10.2h32.1c-3.8,4.3-8.4,7.7-13.5,10.2h5
			c1.4,0.1,2.5,1.3,2.5,2.8c-0.1,1.3-1.1,2.4-2.5,2.5h-2.9C80.1,52.2,93.3,63.3,93.3,79z"/>
		<path id="Path_234" class="st38" d="M93.5,78.9v0.8c-0.7,34.1-61.6,34.1-62.3,0v-0.8c0-15.8,14.1-26.9,27-33.9h-3
			c-1.4,0.1-2.7-1-2.8-2.4s1-2.7,2.4-2.8c0.1,0,0.2,0,0.3,0h5.1c-5.1-2.4-9.7-5.9-13.5-10.2h32.1c-3.8,4.3-8.4,7.7-13.5,10.2h5
			c1.4-0.1,2.7,1,2.8,2.4c0.1,1.4-1,2.7-2.4,2.8c-0.1,0-0.2,0-0.3,0h-3C80.3,52.1,93.5,63.1,93.5,78.9z"/>
		<path id="Path_235" class="st39" d="M93.7,78.8v0.8c-0.7,34.1-61.6,34.1-62.3,0v-0.8c0-15.8,14.1-26.9,27-33.9h-2.9
			c-1.4,0.1-2.7-1-2.8-2.4s1-2.7,2.4-2.8c0.1,0,0.2,0,0.3,0h5.1c-5.1-2.4-9.7-5.9-13.5-10.2h32c-3.8,4.3-8.4,7.7-13.5,10.2h5
			c1.4,0.1,2.6,1.3,2.5,2.7c0,1.3-1.1,2.4-2.4,2.5h-3C80.5,52,93.7,63,93.7,78.8z"/>
		<path id="Path_236" class="st40" d="M93.8,78.7v0.8c-0.7,34.1-61.6,34.1-62.2,0v-0.8c0-15.8,14.1-26.9,27-33.9h-2.9
			c-1.4,0-2.6-1.2-2.6-2.6c0-1.4,1.2-2.6,2.6-2.6h5c-5.1-2.4-9.7-5.9-13.5-10.2h32.1c-3.8,4.3-8.4,7.7-13.5,10.2h5
			c1.4,0,2.6,1.2,2.6,2.6c0,1.4-1.2,2.6-2.6,2.6h-3C80.7,51.9,93.8,63,93.8,78.7z"/>
		<path id="Path_237" class="st41" d="M94,78.6v0.8c-0.7,34.1-61.6,34.1-62.2,0v-0.8c0-15.8,14.1-26.9,27-33.9h-2.9
			c-1.4,0.2-2.7-0.8-2.9-2.3c-0.2-1.4,0.8-2.7,2.3-2.9c0.1,0,0.2,0,0.3,0h5.4c-5.1-2.4-9.7-5.9-13.5-10.2h32.1
			c-3.8,4.3-8.4,7.7-13.5,10.2h5c1.4-0.1,2.7,1,2.8,2.4c0.1,1.4-1,2.7-2.4,2.8c-0.1,0-0.2,0-0.3,0h-3C81,51.8,94,62.9,94,78.6z"/>
		<path id="Path_238" class="st42" d="M94.2,78.5v0.8c-0.7,34.1-61.5,34.1-62.2,0v-0.8c0-15.8,14.1-26.9,27-33.9h-3
			c-1.4,0.1-2.7-1-2.8-2.4s1-2.7,2.4-2.8c0.1,0,0.2,0,0.3,0H61c-5.1-2.4-9.7-5.9-13.4-10.2h32.1c-3.8,4.3-8.4,7.7-13.5,10.2h5
			c1.4,0.1,2.6,1.3,2.5,2.7c-0.1,1.3-1.1,2.4-2.4,2.5h-3C81.2,51.7,94.2,62.8,94.2,78.5z"/>
		<path id="Path_239" class="st43" d="M94.4,78.4v0.8c-0.7,34.1-61.5,34.1-62.2,0v-0.8c0-15.8,14.1-26.9,27-33.9h-2.9
			c-1.4,0.1-2.7-1-2.8-2.4s1-2.7,2.4-2.8c0.1,0,0.2,0,0.3,0h5.1c-5.1-2.4-9.7-5.9-13.5-10.2h32.1c-3.8,4.3-8.4,7.7-13.5,10.2h5
			c1.4,0.1,2.5,1.3,2.5,2.8c-0.1,1.3-1.1,2.4-2.5,2.5h-2.9C81.4,51.6,94.4,62.7,94.4,78.4z"/>
		<path id="Path_240" class="st44" d="M94.6,78.3v0.8c-0.7,34.1-61.5,34.1-62.2,0v-0.8c0-15.8,14.1-26.9,27-33.9h-2.9
			c-1.4-0.2-2.5-1.5-2.3-2.9c0.1-1.1,1-2.1,2.1-2.3h5.1c-5.1-2.4-9.7-5.9-13.5-10.2h32.1c-3.8,4.3-8.4,7.7-13.5,10.2h5
			c1.4,0.1,2.5,1.3,2.5,2.8c-0.1,1.3-1.1,2.4-2.5,2.5h-3C81.6,51.5,94.6,62.6,94.6,78.3z"/>
		<path id="Path_241" class="st45" d="M94.7,78.3v0.8c-0.7,34.1-61.5,34.1-62.1,0v-0.8c0-15.8,14.1-26.8,27-33.9h-2.9
			c-1.4-0.1-2.6-1.3-2.5-2.7c0.1-1.3,1.1-2.4,2.4-2.5h5.1c-5.1-2.4-9.7-5.9-13.5-10.2h32.1c-3.8,4.3-8.4,7.7-13.5,10.2h5
			c1.4,0.1,2.5,1.3,2.5,2.8c-0.1,1.3-1.1,2.4-2.5,2.5h-3C81.8,51.4,94.7,62.5,94.7,78.3z"/>
		<path id="Path_242" class="st46" d="M94.9,78.1V79c-0.7,34.1-61.4,34.1-62.1,0v-0.8c0-15.8,14.1-26.9,27-33.9h-2.9
			c-1.4,0-2.6-1.2-2.6-2.6c0-1.4,1.2-2.6,2.6-2.6h5c-5.1-2.4-9.7-5.9-13.5-10.2h32.1C76.7,33.1,72.2,36.6,67,39h5
			c1.4,0,2.6,1.2,2.6,2.6c0,1.4-1.2,2.6-2.6,2.6h-3C82,51.3,94.9,62.4,94.9,78.1z"/>
		<path id="Path_243" class="st47" d="M95.1,78v0.8C94.4,113,33.7,113,33,78.9V78c0-15.8,14.1-26.9,27-33.9h-2.9
			c-1.4-0.1-2.5-1.3-2.5-2.8c0.1-1.3,1.1-2.4,2.5-2.5h5C57,36.5,52.4,33,48.6,28.7h32.1c-3.8,4.3-8.4,7.7-13.5,10.2h5
			c1.4,0.1,2.6,1.3,2.5,2.7c0,1.3-1.1,2.4-2.4,2.5h-3C82.2,51.2,95.1,62.3,95.1,78z"/>
		<path id="Path_244" class="st48" d="M95.3,77.9v0.8c-0.7,34.1-61.4,34.1-62,0v-0.8c0-15.8,14.1-26.9,27-33.9h-3
			c-1.4-0.1-2.6-1.3-2.5-2.7c0.1-1.3,1.1-2.4,2.4-2.5h5.1c-5.1-2.4-9.7-5.9-13.5-10.2h32.1c-3.8,4.3-8.4,7.7-13.5,10.2h5
			c1.4,0.1,2.5,1.3,2.5,2.8c-0.1,1.3-1.1,2.4-2.5,2.5h-3C82.4,51.1,95.3,62.2,95.3,77.9z"/>
		<path id="Path_245" class="st49" d="M95.5,77.8v0.8c-0.7,34.1-61.4,34.1-62,0v-0.8c-0.1-15.8,14-26.9,27-33.9h-3
			c-1.4,0.1-2.7-1-2.8-2.4s1-2.7,2.4-2.8c0.1,0,0.2,0,0.3,0h5.1c-5.1-2.4-9.7-5.9-13.5-10.2h32.1c-3.8,4.3-8.4,7.7-13.5,10.2h5
			c1.4,0.1,2.6,1.3,2.5,2.7c-0.1,1.3-1.1,2.4-2.4,2.5h-3C82.6,51,95.5,62.1,95.5,77.8z"/>
		<path id="Path_246" class="st50" d="M95.6,77.7v0.8c-0.7,34.1-61.3,34.1-62,0v-0.8c0-15.8,14.1-26.9,27-33.9h-3
			c-1.4,0-2.6-1.1-2.7-2.6c0-1.4,1.1-2.6,2.6-2.7l0,0h5.1c-5.1-2.4-9.7-5.9-13.5-10.2h32.2c-3.8,4.3-8.4,7.7-13.5,10.2h5
			c1.4,0.1,2.5,1.3,2.5,2.8c-0.1,1.3-1.1,2.4-2.5,2.5h-2.9C82.8,50.9,95.6,62,95.6,77.7z"/>
		<path id="Path_247" class="st51" d="M95.8,77.6v0.8c-0.7,34.1-61.3,34.1-62,0v-0.8c0-15.8,14.1-26.9,27-33.9h-3
			c-1.4,0-2.6-1.1-2.7-2.6c0-1.4,1.1-2.6,2.6-2.7h5.1c-5.1-2.4-9.7-5.9-13.5-10.2h32.2c-3.8,4.3-8.4,7.7-13.5,10.2h5
			c1.4,0,2.6,1.1,2.7,2.6c0,1.4-1.1,2.6-2.6,2.7l0,0h-3C83,50.8,95.8,61.9,95.8,77.6z"/>
		<path id="Path_248" class="st52" d="M96,77.5v0.8c-0.7,34.1-61.3,34.1-61.9,0v-0.8c0-15.8,14.1-26.9,27-33.9h-3
			c-1.4-0.1-2.5-1.3-2.5-2.8c0.1-1.3,1.1-2.4,2.5-2.5h5C58,36,53.4,32.5,49.6,28.3h32.1C78,32.5,73.4,36,68.2,38.5h5
			c1.4,0.1,2.5,1.3,2.5,2.8c-0.1,1.3-1.1,2.4-2.5,2.5h-2.9C83.2,50.7,96,61.8,96,77.5z"/>
		<path id="Path_249" class="st53" d="M96.2,77.4v0.8c-0.7,34.1-61.3,34.1-61.9,0v-0.8c0-15.8,14.1-26.8,27-33.9h-2.9
			c-1.4,0.1-2.7-1-2.8-2.4s1-2.7,2.4-2.8c0.1,0,0.2,0,0.3,0h5.1c-5.1-2.4-9.7-5.9-13.5-10.2h32.1c-3.8,4.3-8.4,7.7-13.5,10.2h5
			c1.4,0.1,2.5,1.3,2.5,2.8c-0.1,1.3-1.1,2.4-2.5,2.5h-2.9C83.4,50.6,96.2,61.7,96.2,77.4z"/>
	</g>
	<path id="Path_250" class="st54" d="M70.5,43.6c13,7,25.7,18.1,25.7,33.9v0.8c-0.7,34.1-59.9,34.1-60.6,0v-0.8
		c0-15.8,12.8-26.8,25.7-33.9H70.5z"/>
	<path id="Path_251" class="st54" d="M67.8,38.6c5.4-2.4,10.2-6,14.1-10.4H49.8c3.9,4.4,8.7,8,14.1,10.4H67.8z"/>
	<path id="Path_252" class="st55" d="M59.5,28.2c1.2,3.8,3.1,7.3,5.6,10.4h-1.2c-5.4-2.4-10.2-6-14.1-10.4H59.5z"/>
	<path id="Path_253" class="st56" d="M73.4,38.3h-15c-1.4,0-2.6,1.2-2.6,2.6c0,0,0,0,0,0l0,0c0,1.4,1.2,2.6,2.6,2.6h15
		c1.4,0,2.6-1.2,2.6-2.6c0,0,0,0,0,0l0,0C76,39.5,74.9,38.3,73.4,38.3C73.4,38.3,73.4,38.3,73.4,38.3L73.4,38.3z"/>
	<path id="Path_254" class="st57" d="M70.7,82.6H58.2c-0.8-0.2-1.6,0.4-1.8,1.2c-0.2,0.8,0.4,1.6,1.2,1.8c0.2,0,0.3,0,0.5,0h6.1v3.7
		c0.1,0.8,0.9,1.4,1.7,1.3c0.6-0.1,1.1-0.6,1.3-1.3v-3.7h3.5c2.2,0,4-1.8,4-4v-4.1c0-2.2-1.8-4-4-4h-10c-0.6,0-1-0.4-1-1v-4.1
		c0-0.6,0.4-1,1-1h12.5c0.8-0.1,1.4-0.9,1.3-1.7c-0.1-0.6-0.6-1.1-1.3-1.3h-6v-3.7c-0.1-0.8-0.9-1.4-1.7-1.3
		c-0.6,0.1-1.1,0.6-1.3,1.3v3.7h-3.5c-2.2,0-4,1.8-4,4v4.1c0,2.2,1.8,4,4,4h10c0.6,0,1,0.4,1,1v4.1C71.7,82.1,71.3,82.5,70.7,82.6
		L70.7,82.6z"/>
	<path id="Path_255" class="st55" d="M65.9,103.9h-0.6c-15.3-0.2-29.1-8.6-29.7-25.2v-1.2c0-15.8,12.7-26.8,25.7-33.9h1.8
		c-7.9,7-13.2,20.7-13.2,36.5v0.8C50.1,98,58,103.9,65.9,103.9z"/>
</g>
</svg>
