<svg xmlns="http://www.w3.org/2000/svg" viewBox="0 0 95.17 95.28"><title>finalno_transactions_icon</title><g id="Layer_2" data-name="Layer 2"><g id="Layer_1-2" data-name="Layer 1"><path d="M19.61,85.6c1.49-3,3.35-2.81,6.06-1.28,17.76,10.06,38.56,7.41,52.38-6.49,13.63-13.7,16.22-34.6,6.29-52-1.52-2.66-1.86-4.56,1.13-6.13,14.3,13.88,12.47,44.36-3.39,61C63.75,99.84,34.25,98.7,19.61,85.6Z" fill="#fecb64"/><path d="M9.71,75.35C-2.29,63-5,34.55,12.11,15.93,28.9-2.36,59.26-5.45,75.29,9.52c-1.26,3.82-3.39,2.77-6,1.28-17-9.73-38.06-7.12-51.64,6.3a43,43,0,0,0-7.08,52C12,71.53,13.6,73.74,9.71,75.35Z" fill="#fecb64"/><path d="M32.07,73.49c3.37-5,6.25-7.83,11.7-6.24a13,13,0,0,0,7.87-.3c2.35-.94,5.17-3,5.82-5.2.52-1.71-1.86-4.38-3.14-6.5-.45-.76-1.46-1.18-2.06-1.63,0-.53,0-.79.07-.85,2.51-1.78,5.15-5.14,7.52-5,4.4.34,8.13,7.57,7.76,12.63C67,68.3,62.87,72.55,52.26,75.74V85.79h-9C45.33,77.23,40.59,73.74,32.07,73.49Z" fill="#fecb64"/><path d="M63.26,21.84c-3.18,4.76-6,7.35-11.25,5.38a10.7,10.7,0,0,0-6.87,0c-2.37.85-5.35,2.52-6.11,4.56-.63,1.7,1.42,4.53,2.57,6.7.5.93,1.72,1.48,2.54,2.14,0,.35,0,.58-.1.67-2.14,2-5.38,5.95-6.24,5.49a18.19,18.19,0,0,1-7.52-7.38c-3.54-7.12-.08-15.25,7.28-18.78,1.62-.78,3.37-1.31,5.34-2.06.15-2.81.31-5.74.48-9h8c.7,3.14.46,7.11,2.33,9S59.68,20.73,63.26,21.84Z" fill="#fecb64"/><path d="M80.18,12.16c.68,2,1.44,3.25,1.46,4.56,0,.72-1.21,1.49-1.91,2.19L18.94,79.7a7.59,7.59,0,0,1-2.22,2,2.76,2.76,0,0,1-2.53-.33,3.75,3.75,0,0,1-.52-2.94c.25-.85,1.28-1.48,2-2.19Q45.87,46,76.1,15.78C77.13,14.75,78.29,13.83,80.18,12.16Z" fill="#fecb64"/></g></g></svg>